<svg xmlns="http://www.w3.org/2000/svg" width="24" height="24" viewBox="0 0 512 512">
    <path fill="#fff"
          d="M441.2 356.898L344.597 422H227v-30h90c24.902 0 45-20.102 45-45v-15h-90c-3-.3-7.8 1.2-13.5-3.602l-7.2-6.3c-39.6-34.797-99-34.797-138.6 0L67.397 362H0v150h318.5L512 381.5l-8.402-12.602c-13.797-20.398-41.996-25.796-62.399-12zm0 0"/>
    <path fill="#fff"
          d="M302 0L92 182h60v87.773c9.809-2.242 19.79-3.78 30-3.78 32.828 0 64.48 11.925 89.105 33.573l2.856 2.422c.07.004 5.187.008 13.039.004v-32.758c-17.422-6.21-30-22.707-30-42.234h30c0 8.273 6.723 15 15 15 8.273 0 15-6.727 15-15 0-8.277-6.727-15-15-15-24.816 0-45-20.187-45-45 0-19.531 12.578-36.023 30-42.238V92h30v32.762c17.422 6.215 30 22.707 30 42.238h-30c0-8.277-6.727-15-15-15-8.277 0-15 6.723-15 15s6.723 15 15 15c24.813 0 45 20.188 45 45 0 19.531-12.578 36.023-30 42.238v32.742c33.742-.02 75-.05 75-.05v51.949l32.445-21.852c8.313-5.632 17.778-8.75 27.555-10.656V182h60zm0 0"/>
</svg>
