<svg xmlns="http://www.w3.org/2000/svg" viewBox="10 43 985 950" width="24" height="24">
    <g fill="#fff">
        <path d="M990 410.7c-18 38.3-40.8 71.8-58.4 110.3-18-5.8-24.3-23.3-45.5-25.9v441.4H110.5V498.4c-15.9-6.2-27.4 20.1-45.4 22.7C50.3 481.9 26.1 452 10 414c50.5-45.6 113.2-79.3 165.5-123.2v-159h152.6v48.7c54.5-29 113.2-81.7 171.9-117 163.7 115.4 325.4 232.8 490 347.2zm-743.1-3.2c-26 18.7-71.9 42.4-77.9 61.6-7.6 24.4 0 69.2 0 100.7v308.3h658.8V462.7c-109.2-79.1-219.2-157.2-331-233.7-77.5 55.7-166.1 118-249.9 178.5z"/>
        <path d="M477.2 384.8c129.7-10.9 253.7 91.3 233.6 249.8-10.3 81.4-70 143.5-133 168.8C348.2 895.6 182.3 597.5 341 443.2c32.8-32 82.1-53.9 136.2-58.4zm-9.7 84.3c-41.8 20.2-63.4 48.6-58.4 90.9 8.3 69.7 114 54.7 116.9 94.1 2.9 41.3-67.3 41.5-71.4 0h-45.5c1.6 44.9 27.9 65 58.4 81.1.4 9.3-1.7 21.2 3.3 25.9h45.4V732c62.1-16.4 73.7-94.3 38.9-129.8-24.9-25.6-88.3-19-94.1-48.6-5.9-30.6 20.8-39.6 45.5-35.8 11.3 6.1 12.4 22.2 22.6 29.3h45.5c-1.6-45-31-62.1-58.4-81.3v-25.9h-48.8c.1 9.8.1 19.5.1 29.2z"/>
    </g>
</svg>
